<mxfile host="app.diagrams.net" agent="Mozilla/5.0 (Macintosh; Intel Mac OS X 10_15_7) AppleWebKit/537.36 (KHTML, like Gecko) Chrome/139.0.0.0 Safari/537.36" version="28.1.1">
  <diagram name="第 1 页" id="jRq5FlzeGsqcz1ciHy75">
    <mxGraphModel dx="2061" dy="790" grid="1" gridSize="10" guides="1" tooltips="1" connect="1" arrows="1" fold="1" page="1" pageScale="1" pageWidth="827" pageHeight="1169" math="0" shadow="0">
      <root>
        <mxCell id="0" />
        <mxCell id="1" parent="0" />
        <mxCell id="cbWyFVTfV4eGDqL5AZ-9-6" style="edgeStyle=orthogonalEdgeStyle;rounded=0;orthogonalLoop=1;jettySize=auto;html=1;entryX=0;entryY=0.5;entryDx=0;entryDy=0;" edge="1" parent="1" source="cbWyFVTfV4eGDqL5AZ-9-1" target="cbWyFVTfV4eGDqL5AZ-9-5">
          <mxGeometry relative="1" as="geometry" />
        </mxCell>
        <mxCell id="cbWyFVTfV4eGDqL5AZ-9-75" style="edgeStyle=orthogonalEdgeStyle;rounded=0;orthogonalLoop=1;jettySize=auto;html=1;entryX=0;entryY=0.5;entryDx=0;entryDy=0;" edge="1" parent="1" source="cbWyFVTfV4eGDqL5AZ-9-1" target="cbWyFVTfV4eGDqL5AZ-9-68">
          <mxGeometry relative="1" as="geometry">
            <Array as="points">
              <mxPoint x="-190" y="350" />
              <mxPoint x="-190" y="130" />
            </Array>
          </mxGeometry>
        </mxCell>
        <mxCell id="cbWyFVTfV4eGDqL5AZ-9-1" value="&lt;div style=&quot;font-family: Menlo, Monaco, &amp;quot;Courier New&amp;quot;, monospace; line-height: 18px; white-space: pre;&quot;&gt;&lt;span&gt;&lt;font style=&quot;color: light-dark(rgb(255, 255, 255), rgb(255, 255, 255));&quot;&gt;main.app-svr.app-feed&lt;/font&gt;&lt;/span&gt;&lt;/div&gt;" style="rounded=1;whiteSpace=wrap;html=1;" vertex="1" parent="1">
          <mxGeometry x="-480" y="320" width="180" height="60" as="geometry" />
        </mxCell>
        <mxCell id="cbWyFVTfV4eGDqL5AZ-9-3" style="edgeStyle=orthogonalEdgeStyle;rounded=0;orthogonalLoop=1;jettySize=auto;html=1;entryX=0;entryY=0.5;entryDx=0;entryDy=0;" edge="1" parent="1" source="cbWyFVTfV4eGDqL5AZ-9-2" target="cbWyFVTfV4eGDqL5AZ-9-1">
          <mxGeometry relative="1" as="geometry" />
        </mxCell>
        <mxCell id="cbWyFVTfV4eGDqL5AZ-9-2" value="" style="verticalLabelPosition=bottom;verticalAlign=top;html=1;shadow=0;dashed=0;strokeWidth=1;shape=mxgraph.android.phone2;strokeColor=#c0c0c0;" vertex="1" parent="1">
          <mxGeometry x="-770" y="315" width="40" height="70" as="geometry" />
        </mxCell>
        <mxCell id="cbWyFVTfV4eGDqL5AZ-9-4" value="&lt;div style=&quot;font-family: Menlo, Monaco, &amp;quot;Courier New&amp;quot;, monospace; line-height: 18px; white-space-collapse: preserve;&quot;&gt;&lt;span&gt;&lt;font style=&quot;color: light-dark(rgb(255, 255, 255), rgb(255, 255, 255));&quot;&gt;/x/v&lt;span&gt;2&lt;/span&gt;/feed/index&lt;/font&gt;&lt;/span&gt;&lt;/div&gt;" style="text;html=1;align=center;verticalAlign=middle;resizable=0;points=[];autosize=1;strokeColor=none;fillColor=none;" vertex="1" parent="1">
          <mxGeometry x="-710" y="320" width="140" height="30" as="geometry" />
        </mxCell>
        <mxCell id="cbWyFVTfV4eGDqL5AZ-9-5" value="live.live.app-interface" style="rounded=1;whiteSpace=wrap;html=1;" vertex="1" parent="1">
          <mxGeometry x="-80" y="460" width="170" height="60" as="geometry" />
        </mxCell>
        <mxCell id="cbWyFVTfV4eGDqL5AZ-9-8" value="&lt;span style=&quot;font-family: ui-sans-serif, system-ui, sans-serif, &amp;quot;Apple Color Emoji&amp;quot;, &amp;quot;Segoe UI Emoji&amp;quot;, &amp;quot;Segoe UI Symbol&amp;quot;, &amp;quot;Noto Color Emoji&amp;quot;; font-size: 14px; text-align: left; text-wrap-mode: wrap;&quot;&gt;&lt;font style=&quot;color: light-dark(rgb(255, 255, 255), rgb(255, 255, 255));&quot;&gt;/xlive/internal/app-interface/v1/index/RoomsForAppIndex&lt;/font&gt;&lt;/span&gt;" style="text;html=1;align=center;verticalAlign=middle;resizable=0;points=[];autosize=1;strokeColor=none;fillColor=none;" vertex="1" parent="1">
          <mxGeometry x="-260" y="420" width="390" height="30" as="geometry" />
        </mxCell>
        <mxCell id="cbWyFVTfV4eGDqL5AZ-9-12" value="" style="group" vertex="1" connectable="0" parent="1">
          <mxGeometry x="90" y="170" width="1970" height="1310" as="geometry" />
        </mxCell>
        <mxCell id="cbWyFVTfV4eGDqL5AZ-9-13" value="live.live.dao-anchor" style="rounded=1;whiteSpace=wrap;html=1;" vertex="1" parent="cbWyFVTfV4eGDqL5AZ-9-12">
          <mxGeometry x="890" width="120" height="60" as="geometry" />
        </mxCell>
        <mxCell id="cbWyFVTfV4eGDqL5AZ-9-14" value="&lt;span style=&quot;font-family: ui-sans-serif, system-ui, sans-serif, &amp;quot;Apple Color Emoji&amp;quot;, &amp;quot;Segoe UI Emoji&amp;quot;, &amp;quot;Segoe UI Symbol&amp;quot;, &amp;quot;Noto Color Emoji&amp;quot;; font-size: 14px; font-style: normal; font-variant-ligatures: normal; font-variant-caps: normal; font-weight: 400; letter-spacing: normal; orphans: 2; text-align: left; text-indent: 0px; text-transform: none; widows: 2; word-spacing: 0px; -webkit-text-stroke-width: 0px; white-space: normal; text-decoration-thickness: initial; text-decoration-style: initial; text-decoration-color: initial; float: none; display: inline !important;&quot;&gt;&lt;font style=&quot;color: light-dark(rgb(255, 255, 255), rgb(255, 255, 255));&quot;&gt;/live.daoanchor.v1.DaoAnchor/FetchRoomByIDs&lt;/font&gt;&lt;/span&gt;" style="text;whiteSpace=wrap;html=1;" vertex="1" parent="cbWyFVTfV4eGDqL5AZ-9-12">
          <mxGeometry x="520" width="340" height="40" as="geometry" />
        </mxCell>
        <mxCell id="cbWyFVTfV4eGDqL5AZ-9-15" value="" style="rounded=0;whiteSpace=wrap;html=1;dashed=1;dashPattern=8 8;" vertex="1" parent="cbWyFVTfV4eGDqL5AZ-9-12">
          <mxGeometry x="1250" y="705" width="690" height="605" as="geometry" />
        </mxCell>
        <mxCell id="cbWyFVTfV4eGDqL5AZ-9-16" value="" style="rounded=0;whiteSpace=wrap;html=1;dashed=1;dashPattern=8 8;" vertex="1" parent="cbWyFVTfV4eGDqL5AZ-9-12">
          <mxGeometry x="180" y="720" width="820" height="590" as="geometry" />
        </mxCell>
        <mxCell id="cbWyFVTfV4eGDqL5AZ-9-17" value="" style="rounded=0;whiteSpace=wrap;html=1;dashed=1;dashPattern=8 8;" vertex="1" parent="cbWyFVTfV4eGDqL5AZ-9-12">
          <mxGeometry x="530" y="270" width="1090" height="330" as="geometry" />
        </mxCell>
        <mxCell id="cbWyFVTfV4eGDqL5AZ-9-18" style="edgeStyle=orthogonalEdgeStyle;rounded=0;orthogonalLoop=1;jettySize=auto;html=1;entryX=0;entryY=0.5;entryDx=0;entryDy=0;" edge="1" parent="cbWyFVTfV4eGDqL5AZ-9-12" source="cbWyFVTfV4eGDqL5AZ-9-21" target="cbWyFVTfV4eGDqL5AZ-9-13">
          <mxGeometry relative="1" as="geometry">
            <Array as="points">
              <mxPoint x="440" y="330" />
              <mxPoint x="440" y="30" />
            </Array>
          </mxGeometry>
        </mxCell>
        <mxCell id="cbWyFVTfV4eGDqL5AZ-9-19" style="edgeStyle=orthogonalEdgeStyle;rounded=0;orthogonalLoop=1;jettySize=auto;html=1;entryX=0.5;entryY=0;entryDx=0;entryDy=0;" edge="1" parent="cbWyFVTfV4eGDqL5AZ-9-12" source="cbWyFVTfV4eGDqL5AZ-9-21" target="cbWyFVTfV4eGDqL5AZ-9-25">
          <mxGeometry relative="1" as="geometry">
            <Array as="points">
              <mxPoint x="440" y="330" />
              <mxPoint x="440" y="190" />
              <mxPoint x="940" y="190" />
            </Array>
          </mxGeometry>
        </mxCell>
        <mxCell id="cbWyFVTfV4eGDqL5AZ-9-20" style="edgeStyle=orthogonalEdgeStyle;rounded=0;orthogonalLoop=1;jettySize=auto;html=1;entryX=0.5;entryY=0;entryDx=0;entryDy=0;" edge="1" parent="cbWyFVTfV4eGDqL5AZ-9-12" source="cbWyFVTfV4eGDqL5AZ-9-21" target="cbWyFVTfV4eGDqL5AZ-9-33">
          <mxGeometry relative="1" as="geometry">
            <Array as="points">
              <mxPoint x="440" y="330" />
              <mxPoint x="440" y="670" />
              <mxPoint x="740" y="670" />
            </Array>
          </mxGeometry>
        </mxCell>
        <mxCell id="cbWyFVTfV4eGDqL5AZ-9-21" value="live.live.xroom" style="rounded=1;whiteSpace=wrap;html=1;" vertex="1" parent="cbWyFVTfV4eGDqL5AZ-9-12">
          <mxGeometry x="250" y="300" width="120" height="60" as="geometry" />
        </mxCell>
        <mxCell id="cbWyFVTfV4eGDqL5AZ-9-22" style="edgeStyle=orthogonalEdgeStyle;rounded=0;orthogonalLoop=1;jettySize=auto;html=1;exitX=0.5;exitY=1;exitDx=0;exitDy=0;entryX=0.5;entryY=0;entryDx=0;entryDy=0;" edge="1" parent="cbWyFVTfV4eGDqL5AZ-9-12" source="cbWyFVTfV4eGDqL5AZ-9-25" target="cbWyFVTfV4eGDqL5AZ-9-26">
          <mxGeometry relative="1" as="geometry">
            <Array as="points">
              <mxPoint x="960" y="360" />
              <mxPoint x="960" y="420" />
              <mxPoint x="755" y="420" />
            </Array>
          </mxGeometry>
        </mxCell>
        <mxCell id="cbWyFVTfV4eGDqL5AZ-9-23" style="edgeStyle=orthogonalEdgeStyle;rounded=0;orthogonalLoop=1;jettySize=auto;html=1;" edge="1" parent="cbWyFVTfV4eGDqL5AZ-9-12" source="cbWyFVTfV4eGDqL5AZ-9-25" target="cbWyFVTfV4eGDqL5AZ-9-27">
          <mxGeometry relative="1" as="geometry">
            <Array as="points">
              <mxPoint x="960" y="420" />
              <mxPoint x="1190" y="420" />
            </Array>
          </mxGeometry>
        </mxCell>
        <mxCell id="cbWyFVTfV4eGDqL5AZ-9-24" style="edgeStyle=orthogonalEdgeStyle;rounded=0;orthogonalLoop=1;jettySize=auto;html=1;" edge="1" parent="cbWyFVTfV4eGDqL5AZ-9-12" source="cbWyFVTfV4eGDqL5AZ-9-25" target="cbWyFVTfV4eGDqL5AZ-9-31">
          <mxGeometry relative="1" as="geometry" />
        </mxCell>
        <mxCell id="cbWyFVTfV4eGDqL5AZ-9-25" value="&lt;span style=&quot;font-family: ui-sans-serif, system-ui, sans-serif, &amp;quot;Apple Color Emoji&amp;quot;, &amp;quot;Segoe UI Emoji&amp;quot;, &amp;quot;Segoe UI Symbol&amp;quot;, &amp;quot;Noto Color Emoji&amp;quot;; text-align: left; text-wrap-mode: nowrap;&quot;&gt;&lt;font style=&quot;color: light-dark(rgb(255, 255, 255), rgb(255, 255, 255));&quot;&gt;live.live-infra.playurl-strategy&lt;/font&gt;&lt;/span&gt;" style="rounded=1;whiteSpace=wrap;html=1;" vertex="1" parent="cbWyFVTfV4eGDqL5AZ-9-12">
          <mxGeometry x="840" y="300" width="200" height="60" as="geometry" />
        </mxCell>
        <mxCell id="cbWyFVTfV4eGDqL5AZ-9-26" value="&lt;div style=&quot;font-family: Menlo, Monaco, &amp;quot;Courier New&amp;quot;, monospace; line-height: 18px; white-space: pre;&quot;&gt;&lt;span&gt;&lt;font style=&quot;color: light-dark(rgb(255, 255, 255), rgb(255, 255, 255));&quot;&gt;datacenter&lt;span&gt;.&lt;/span&gt;titan&lt;span&gt;.&lt;/span&gt;titan&lt;span&gt;-&lt;/span&gt;user&lt;span&gt;-&lt;/span&gt;service&lt;/font&gt;&lt;/span&gt;&lt;/div&gt;" style="rounded=1;whiteSpace=wrap;html=1;" vertex="1" parent="cbWyFVTfV4eGDqL5AZ-9-12">
          <mxGeometry x="570" y="480" width="370" height="60" as="geometry" />
        </mxCell>
        <mxCell id="cbWyFVTfV4eGDqL5AZ-9-27" value="&lt;div style=&quot;font-family: Menlo, Monaco, &amp;quot;Courier New&amp;quot;, monospace; line-height: 18px; white-space: pre;&quot;&gt;&lt;font style=&quot;color: light-dark(rgb(255, 255, 255), rgb(255, 255, 255));&quot;&gt;video&lt;span&gt;.&lt;/span&gt;live&lt;span&gt;-&lt;/span&gt;edge&lt;span&gt;-&lt;/span&gt;computing&lt;span&gt;.&lt;/span&gt;stream&lt;span&gt;-&lt;/span&gt;media&lt;span&gt;-&lt;/span&gt;fetch&lt;/font&gt;&lt;/div&gt;" style="rounded=1;whiteSpace=wrap;html=1;" vertex="1" parent="cbWyFVTfV4eGDqL5AZ-9-12">
          <mxGeometry x="1020" y="480" width="340" height="60" as="geometry" />
        </mxCell>
        <mxCell id="cbWyFVTfV4eGDqL5AZ-9-28" value="&lt;span&gt;&lt;span&gt;&lt;font style=&quot;color: light-dark(rgb(255, 255, 255), rgb(255, 255, 255));&quot;&gt;&lt;span style=&quot;box-sizing: border-box; border: 0px solid; margin: 0px 0px 0px 5px; padding: 0px; font-family: ui-sans-serif, system-ui, sans-serif, &amp;quot;Apple Color Emoji&amp;quot;, &amp;quot;Segoe UI Emoji&amp;quot;, &amp;quot;Segoe UI Symbol&amp;quot;, &amp;quot;Noto Color Emoji&amp;quot;; font-size: 14px; text-align: left; text-wrap-mode: wrap;&quot; data-v-6d79ae31=&quot;&quot;&gt;/datacenter.service.titan.v1.TitanUserServer/CheckTagBatch&lt;/span&gt;&lt;span style=&quot;box-sizing: border-box; border: 1px solid rgb(225, 243, 216); margin: 0px 0px 0px 20px; padding: 0px 9px; align-items: center; border-radius: 4px; display: inline-flex; height: 24px; justify-content: center; vertical-align: middle; font-family: ui-sans-serif, system-ui, sans-serif, &amp;quot;Apple Color Emoji&amp;quot;, &amp;quot;Segoe UI Emoji&amp;quot;, &amp;quot;Segoe UI Symbol&amp;quot;, &amp;quot;Noto Color Emoji&amp;quot;; text-align: left; --el-tag-font-size: 12px; --el-tag-border-radius: 4px; --el-tag-border-radius-rounded: 9999px; line-height: 1; --el-icon-size: 14px; --el-tag-bg-color: rgb(239.8,248.9,235.3); --el-tag-border-color: rgb(224.6,242.8,215.6); --el-tag-hover-color: #67c23a; --el-tag-text-color: #67c23a;&quot; class=&quot;el-tag el-tag--success el-tag--light&quot; data-v-6d79ae31=&quot;&quot;&gt;&lt;/span&gt;&lt;/font&gt;&lt;/span&gt;&lt;/span&gt;&lt;div&gt;&lt;br&gt;&lt;/div&gt;" style="text;html=1;align=center;verticalAlign=middle;resizable=0;points=[];autosize=1;strokeColor=none;fillColor=none;" vertex="1" parent="cbWyFVTfV4eGDqL5AZ-9-12">
          <mxGeometry x="530" y="380" width="450" height="50" as="geometry" />
        </mxCell>
        <mxCell id="cbWyFVTfV4eGDqL5AZ-9-29" value="&lt;span&gt;&lt;span&gt;&lt;font style=&quot;color: light-dark(rgb(255, 255, 255), rgb(255, 255, 255));&quot;&gt;&lt;span style=&quot;box-sizing: border-box; border: 0px solid; margin: 0px 0px 0px 5px; padding: 0px; font-family: ui-sans-serif, system-ui, sans-serif, &amp;quot;Apple Color Emoji&amp;quot;, &amp;quot;Segoe UI Emoji&amp;quot;, &amp;quot;Segoe UI Symbol&amp;quot;, &amp;quot;Noto Color Emoji&amp;quot;; font-size: 14px; text-align: left; text-wrap-mode: wrap;&quot; data-v-6d79ae31=&quot;&quot;&gt;/video.edge_computing.stream_media_fetch.v1.StreamMediaFetch/QueryRoomMediaCommonInfo&lt;/span&gt;&lt;span style=&quot;box-sizing: border-box; border: 1px solid rgb(225, 243, 216); margin: 0px 0px 0px 20px; padding: 0px 9px; align-items: center; border-radius: 4px; display: inline-flex; height: 24px; justify-content: center; vertical-align: middle; font-family: ui-sans-serif, system-ui, sans-serif, &amp;quot;Apple Color Emoji&amp;quot;, &amp;quot;Segoe UI Emoji&amp;quot;, &amp;quot;Segoe UI Symbol&amp;quot;, &amp;quot;Noto Color Emoji&amp;quot;; text-align: left; --el-tag-font-size: 12px; --el-tag-border-radius: 4px; --el-tag-border-radius-rounded: 9999px; line-height: 1; --el-icon-size: 14px; --el-tag-bg-color: rgb(239.8,248.9,235.3); --el-tag-border-color: rgb(224.6,242.8,215.6); --el-tag-hover-color: #67c23a; --el-tag-text-color: #67c23a;&quot; class=&quot;el-tag el-tag--success el-tag--light&quot; data-v-6d79ae31=&quot;&quot;&gt;&lt;/span&gt;&lt;/font&gt;&lt;/span&gt;&lt;/span&gt;&lt;div&gt;&lt;br&gt;&lt;/div&gt;" style="text;html=1;align=center;verticalAlign=middle;resizable=0;points=[];autosize=1;strokeColor=none;fillColor=none;" vertex="1" parent="cbWyFVTfV4eGDqL5AZ-9-12">
          <mxGeometry x="930" y="380" width="700" height="50" as="geometry" />
        </mxCell>
        <mxCell id="cbWyFVTfV4eGDqL5AZ-9-30" value="策略" style="text;html=1;align=center;verticalAlign=middle;resizable=0;points=[];autosize=1;strokeColor=none;fillColor=none;" vertex="1" parent="cbWyFVTfV4eGDqL5AZ-9-12">
          <mxGeometry x="1085" y="240" width="50" height="30" as="geometry" />
        </mxCell>
        <mxCell id="cbWyFVTfV4eGDqL5AZ-9-31" value="paladin&lt;br&gt;策略规则(热更新)" style="ellipse;whiteSpace=wrap;html=1;" vertex="1" parent="cbWyFVTfV4eGDqL5AZ-9-12">
          <mxGeometry x="610" y="290" width="120" height="80" as="geometry" />
        </mxCell>
        <mxCell id="cbWyFVTfV4eGDqL5AZ-9-32" style="edgeStyle=orthogonalEdgeStyle;rounded=0;orthogonalLoop=1;jettySize=auto;html=1;entryX=0.5;entryY=0;entryDx=0;entryDy=0;" edge="1" parent="cbWyFVTfV4eGDqL5AZ-9-12" source="cbWyFVTfV4eGDqL5AZ-9-33" target="cbWyFVTfV4eGDqL5AZ-9-35">
          <mxGeometry relative="1" as="geometry" />
        </mxCell>
        <mxCell id="cbWyFVTfV4eGDqL5AZ-9-33" value="&lt;span style=&quot;font-family: ui-sans-serif, system-ui, sans-serif, &amp;quot;Apple Color Emoji&amp;quot;, &amp;quot;Segoe UI Emoji&amp;quot;, &amp;quot;Segoe UI Symbol&amp;quot;, &amp;quot;Noto Color Emoji&amp;quot;; text-align: left; text-wrap-mode: nowrap;&quot;&gt;&lt;font style=&quot;color: light-dark(rgb(255, 255, 255), rgb(255, 255, 255));&quot;&gt;video.pung.playurl&lt;/font&gt;&lt;/span&gt;" style="rounded=1;whiteSpace=wrap;html=1;" vertex="1" parent="cbWyFVTfV4eGDqL5AZ-9-12">
          <mxGeometry x="680" y="750" width="120" height="60" as="geometry" />
        </mxCell>
        <mxCell id="cbWyFVTfV4eGDqL5AZ-9-34" style="edgeStyle=orthogonalEdgeStyle;rounded=0;orthogonalLoop=1;jettySize=auto;html=1;exitX=0.5;exitY=1;exitDx=0;exitDy=0;entryX=0.5;entryY=0;entryDx=0;entryDy=0;" edge="1" parent="cbWyFVTfV4eGDqL5AZ-9-12" source="cbWyFVTfV4eGDqL5AZ-9-35" target="cbWyFVTfV4eGDqL5AZ-9-37">
          <mxGeometry relative="1" as="geometry" />
        </mxCell>
        <mxCell id="cbWyFVTfV4eGDqL5AZ-9-35" value="&lt;div style=&quot;font-family: Menlo, Monaco, &amp;quot;Courier New&amp;quot;, monospace; line-height: 18px; white-space: pre;&quot;&gt;&lt;div style=&quot;&quot;&gt;&lt;span&gt;&lt;font style=&quot;color: light-dark(rgb(255, 255, 255), rgb(255, 255, 255));&quot;&gt;video&lt;span&gt;.&lt;/span&gt;live&lt;span&gt;.&lt;/span&gt;schedule&lt;span&gt;-&lt;/span&gt;stream&lt;/font&gt;&lt;/span&gt;&lt;/div&gt;&lt;/div&gt;" style="rounded=1;whiteSpace=wrap;html=1;" vertex="1" parent="cbWyFVTfV4eGDqL5AZ-9-12">
          <mxGeometry x="600" y="910" width="280" height="60" as="geometry" />
        </mxCell>
        <mxCell id="cbWyFVTfV4eGDqL5AZ-9-36" style="edgeStyle=orthogonalEdgeStyle;rounded=0;orthogonalLoop=1;jettySize=auto;html=1;entryX=0.5;entryY=0;entryDx=0;entryDy=0;" edge="1" parent="cbWyFVTfV4eGDqL5AZ-9-12" source="cbWyFVTfV4eGDqL5AZ-9-37" target="cbWyFVTfV4eGDqL5AZ-9-42">
          <mxGeometry relative="1" as="geometry" />
        </mxCell>
        <mxCell id="cbWyFVTfV4eGDqL5AZ-9-37" value="&lt;div style=&quot;font-family: Menlo, Monaco, &amp;quot;Courier New&amp;quot;, monospace; line-height: 18px; white-space: pre;&quot;&gt;&lt;span&gt;&lt;font style=&quot;color: light-dark(rgb(255, 255, 255), rgb(255, 255, 255));&quot;&gt;video&lt;span&gt;.&lt;/span&gt;live&lt;span&gt;-&lt;/span&gt;core&lt;span&gt;.&lt;/span&gt;stream&lt;span&gt;-&lt;/span&gt;room&lt;/font&gt;&lt;/span&gt;&lt;/div&gt;" style="rounded=1;whiteSpace=wrap;html=1;" vertex="1" parent="cbWyFVTfV4eGDqL5AZ-9-12">
          <mxGeometry x="635" y="1040" width="210" height="60" as="geometry" />
        </mxCell>
        <mxCell id="cbWyFVTfV4eGDqL5AZ-9-38" value="热门房间本地缓存" style="shape=process;whiteSpace=wrap;html=1;backgroundOutline=1;" vertex="1" parent="cbWyFVTfV4eGDqL5AZ-9-12">
          <mxGeometry x="245" y="270" width="130" height="30" as="geometry" />
        </mxCell>
        <mxCell id="cbWyFVTfV4eGDqL5AZ-9-39" value="热门房间本地缓存" style="shape=process;whiteSpace=wrap;html=1;backgroundOutline=1;" vertex="1" parent="cbWyFVTfV4eGDqL5AZ-9-12">
          <mxGeometry x="550" y="765" width="130" height="30" as="geometry" />
        </mxCell>
        <mxCell id="cbWyFVTfV4eGDqL5AZ-9-40" value="&lt;span style=&quot;font-family: ui-sans-serif, system-ui, sans-serif, &amp;quot;Apple Color Emoji&amp;quot;, &amp;quot;Segoe UI Emoji&amp;quot;, &amp;quot;Segoe UI Symbol&amp;quot;, &amp;quot;Noto Color Emoji&amp;quot;; font-size: 14px; text-align: left; text-wrap-mode: wrap;&quot;&gt;&lt;font style=&quot;color: light-dark(rgb(255, 255, 255), rgb(255, 255, 255));&quot;&gt;/video.live.streamng.v2.Stream/GetMultiStreamInfo&lt;/font&gt;&lt;/span&gt;" style="text;html=1;align=center;verticalAlign=middle;resizable=0;points=[];autosize=1;strokeColor=none;fillColor=none;" vertex="1" parent="cbWyFVTfV4eGDqL5AZ-9-12">
          <mxGeometry x="730" y="848" width="350" height="30" as="geometry" />
        </mxCell>
        <mxCell id="cbWyFVTfV4eGDqL5AZ-9-41" value="&lt;span style=&quot;font-family: ui-sans-serif, system-ui, sans-serif, &amp;quot;Apple Color Emoji&amp;quot;, &amp;quot;Segoe UI Emoji&amp;quot;, &amp;quot;Segoe UI Symbol&amp;quot;, &amp;quot;Noto Color Emoji&amp;quot;; font-size: 14px; text-align: left; text-wrap-mode: wrap;&quot;&gt;&lt;font style=&quot;color: light-dark(rgb(255, 255, 255), rgb(255, 255, 255));&quot;&gt;/video.live_core.stream_room.v1.StreamRoomServer/BatchGetStreamDataByRoomIdMultiSource&lt;/font&gt;&lt;/span&gt;" style="text;html=1;align=center;verticalAlign=middle;resizable=0;points=[];autosize=1;strokeColor=none;fillColor=none;" vertex="1" parent="cbWyFVTfV4eGDqL5AZ-9-12">
          <mxGeometry x="740" y="990" width="640" height="30" as="geometry" />
        </mxCell>
        <mxCell id="cbWyFVTfV4eGDqL5AZ-9-42" value="&lt;div style=&quot;font-family: Menlo, Monaco, &amp;quot;Courier New&amp;quot;, monospace; line-height: 18px; white-space: pre;&quot;&gt;&lt;span&gt;&lt;font style=&quot;color: light-dark(rgb(255, 255, 255), rgb(255, 255, 255));&quot;&gt;video&lt;span&gt;.&lt;/span&gt;live&lt;span&gt;-&lt;/span&gt;core&lt;span&gt;.&lt;/span&gt;stream&lt;span&gt;-&lt;/span&gt;core&lt;/font&gt;&lt;/span&gt;&lt;/div&gt;" style="rounded=1;whiteSpace=wrap;html=1;" vertex="1" parent="cbWyFVTfV4eGDqL5AZ-9-12">
          <mxGeometry x="605" y="1200" width="270" height="60" as="geometry" />
        </mxCell>
        <mxCell id="cbWyFVTfV4eGDqL5AZ-9-43" value="&lt;span&gt;&lt;span&gt;&lt;font style=&quot;color: light-dark(rgb(255, 255, 255), rgb(255, 255, 255));&quot;&gt;&lt;span style=&quot;box-sizing: border-box; border: 0px solid; margin: 0px 0px 0px 5px; padding: 0px; font-family: ui-sans-serif, system-ui, sans-serif, &amp;quot;Apple Color Emoji&amp;quot;, &amp;quot;Segoe UI Emoji&amp;quot;, &amp;quot;Segoe UI Symbol&amp;quot;, &amp;quot;Noto Color Emoji&amp;quot;; font-size: 14px; text-align: left; text-wrap-mode: wrap;&quot; data-v-6d79ae31=&quot;&quot;&gt;/video.live_core.stream_core.v1.streamCoreServer/GetStreamAvCoversMutilSource&lt;/span&gt;&lt;span style=&quot;box-sizing: border-box; border: 1px solid rgb(225, 243, 216); margin: 0px 0px 0px 20px; padding: 0px 9px; align-items: center; border-radius: 4px; display: inline-flex; height: 24px; justify-content: center; vertical-align: middle; font-family: ui-sans-serif, system-ui, sans-serif, &amp;quot;Apple Color Emoji&amp;quot;, &amp;quot;Segoe UI Emoji&amp;quot;, &amp;quot;Segoe UI Symbol&amp;quot;, &amp;quot;Noto Color Emoji&amp;quot;; text-align: left; --el-tag-font-size: 12px; --el-tag-border-radius: 4px; --el-tag-border-radius-rounded: 9999px; line-height: 1; --el-icon-size: 14px; --el-tag-bg-color: rgb(239.8,248.9,235.3); --el-tag-border-color: rgb(224.6,242.8,215.6); --el-tag-hover-color: #67c23a; --el-tag-text-color: #67c23a;&quot; class=&quot;el-tag el-tag--success el-tag--light&quot; data-v-6d79ae31=&quot;&quot;&gt;&lt;/span&gt;&lt;/font&gt;&lt;/span&gt;&lt;/span&gt;&lt;div&gt;&lt;br&gt;&lt;/div&gt;" style="text;html=1;align=center;verticalAlign=middle;resizable=0;points=[];autosize=1;strokeColor=none;fillColor=none;" vertex="1" parent="cbWyFVTfV4eGDqL5AZ-9-12">
          <mxGeometry x="160" y="1140" width="600" height="50" as="geometry" />
        </mxCell>
        <mxCell id="cbWyFVTfV4eGDqL5AZ-9-44" value="&lt;font style=&quot;color: light-dark(rgb(255, 255, 255), rgb(255, 255, 255));&quot;&gt;&lt;span&gt;&lt;span&gt;&lt;span style=&quot;box-sizing: border-box; border: 0px solid; margin: 0px 0px 0px 5px; padding: 0px; font-family: ui-sans-serif, system-ui, sans-serif, &amp;quot;Apple Color Emoji&amp;quot;, &amp;quot;Segoe UI Emoji&amp;quot;, &amp;quot;Segoe UI Symbol&amp;quot;, &amp;quot;Noto Color Emoji&amp;quot;; font-size: 14px; text-align: left; text-wrap-mode: wrap;&quot; data-v-6d79ae31=&quot;&quot;&gt;/video.live_core.stream_core.v1.streamCoreServer/StreamBatchGetMutilSource&lt;/span&gt;&lt;span style=&quot;box-sizing: border-box; border: 1px solid rgb(225, 243, 216); margin: 0px 0px 0px 20px; padding: 0px 9px; --el-tag-font-size: 12px; --el-tag-border-radius: 4px; --el-tag-border-radius-rounded: 9999px; align-items: center; border-radius: 4px; display: inline-flex; height: 24px; justify-content: center; line-height: 1; vertical-align: middle; --el-icon-size: 14px; --el-tag-bg-color: rgb(239.8,248.9,235.3); --el-tag-border-color: rgb(224.6,242.8,215.6); --el-tag-hover-color: #67c23a; --el-tag-text-color: #67c23a; font-family: ui-sans-serif, system-ui, sans-serif, &amp;quot;Apple Color Emoji&amp;quot;, &amp;quot;Segoe UI Emoji&amp;quot;, &amp;quot;Segoe UI Symbol&amp;quot;, &amp;quot;Noto Color Emoji&amp;quot;; text-align: left; border-image: initial; --el-tag-font-size: 12px; --el-tag-border-radius: 4px; --el-tag-border-radius-rounded: 9999px; line-height: 1; --el-icon-size: 14px; --el-tag-bg-color: rgb(239.8,248.9,235.3); --el-tag-border-color: rgb(224.6,242.8,215.6); --el-tag-hover-color: #67c23a; --el-tag-text-color: #67c23a;&quot; class=&quot;el-tag el-tag--success el-tag--light&quot; data-v-6d79ae31=&quot;&quot;&gt;&lt;/span&gt;&lt;/span&gt;&lt;/span&gt;&lt;/font&gt;&lt;div&gt;&lt;br&gt;&lt;/div&gt;" style="text;html=1;align=center;verticalAlign=middle;resizable=0;points=[];autosize=1;strokeColor=none;fillColor=none;" vertex="1" parent="cbWyFVTfV4eGDqL5AZ-9-12">
          <mxGeometry x="710" y="1140" width="580" height="50" as="geometry" />
        </mxCell>
        <mxCell id="cbWyFVTfV4eGDqL5AZ-9-45" style="edgeStyle=orthogonalEdgeStyle;rounded=0;orthogonalLoop=1;jettySize=auto;html=1;entryX=0.5;entryY=0;entryDx=0;entryDy=0;" edge="1" parent="cbWyFVTfV4eGDqL5AZ-9-12" source="cbWyFVTfV4eGDqL5AZ-9-47" target="cbWyFVTfV4eGDqL5AZ-9-48">
          <mxGeometry relative="1" as="geometry" />
        </mxCell>
        <mxCell id="cbWyFVTfV4eGDqL5AZ-9-46" style="edgeStyle=orthogonalEdgeStyle;rounded=0;orthogonalLoop=1;jettySize=auto;html=1;" edge="1" parent="cbWyFVTfV4eGDqL5AZ-9-12" source="cbWyFVTfV4eGDqL5AZ-9-47" target="cbWyFVTfV4eGDqL5AZ-9-49">
          <mxGeometry relative="1" as="geometry" />
        </mxCell>
        <mxCell id="cbWyFVTfV4eGDqL5AZ-9-47" value="&lt;div style=&quot;font-family: Menlo, Monaco, &amp;quot;Courier New&amp;quot;, monospace; line-height: 18px; white-space: pre;&quot;&gt;&lt;span&gt;&lt;font style=&quot;color: light-dark(rgb(255, 255, 255), rgb(255, 255, 255));&quot;&gt;infra&lt;span&gt;.&lt;/span&gt;mg&lt;span&gt;.&lt;/span&gt;playurl&lt;span&gt;-&lt;/span&gt;v3&lt;/font&gt;&lt;/span&gt;&lt;/div&gt;" style="rounded=1;whiteSpace=wrap;html=1;" vertex="1" parent="cbWyFVTfV4eGDqL5AZ-9-12">
          <mxGeometry x="1490" y="740" width="200" height="60" as="geometry" />
        </mxCell>
        <mxCell id="cbWyFVTfV4eGDqL5AZ-9-48" value="&lt;div style=&quot;font-family: Menlo, Monaco, &amp;quot;Courier New&amp;quot;, monospace; line-height: 18px; white-space: pre;&quot;&gt;&lt;div style=&quot;line-height: 18px;&quot;&gt;&lt;span&gt;&lt;font style=&quot;color: light-dark(rgb(255, 255, 255), rgb(255, 255, 255));&quot;&gt;multimedia&lt;span&gt;.&lt;/span&gt;lv&lt;span&gt;.&lt;/span&gt;lawrencium&lt;/font&gt;&lt;/span&gt;&lt;/div&gt;&lt;/div&gt;" style="rounded=1;whiteSpace=wrap;html=1;" vertex="1" parent="cbWyFVTfV4eGDqL5AZ-9-12">
          <mxGeometry x="1290" y="900" width="200" height="60" as="geometry" />
        </mxCell>
        <mxCell id="cbWyFVTfV4eGDqL5AZ-9-49" value="&lt;div style=&quot;font-family: Menlo, Monaco, &amp;quot;Courier New&amp;quot;, monospace; line-height: 18px; white-space: pre;&quot;&gt;&lt;span style=&quot;font-family: ui-sans-serif, system-ui, sans-serif, &amp;quot;Apple Color Emoji&amp;quot;, &amp;quot;Segoe UI Emoji&amp;quot;, &amp;quot;Segoe UI Symbol&amp;quot;, &amp;quot;Noto Color Emoji&amp;quot;; text-align: left; white-space-collapse: collapse;&quot;&gt;&lt;font style=&quot;color: light-dark(rgb(255, 255, 255), rgb(255, 255, 255));&quot;&gt;video.live-cdn.bvccdn-ban-streamcenter&lt;/font&gt;&lt;/span&gt;&lt;/div&gt;" style="rounded=1;whiteSpace=wrap;html=1;" vertex="1" parent="cbWyFVTfV4eGDqL5AZ-9-12">
          <mxGeometry x="1630" y="900" width="250" height="60" as="geometry" />
        </mxCell>
        <mxCell id="cbWyFVTfV4eGDqL5AZ-9-50" style="edgeStyle=orthogonalEdgeStyle;rounded=0;orthogonalLoop=1;jettySize=auto;html=1;entryX=-0.02;entryY=0.617;entryDx=0;entryDy=0;entryPerimeter=0;" edge="1" parent="cbWyFVTfV4eGDqL5AZ-9-12" source="cbWyFVTfV4eGDqL5AZ-9-33" target="cbWyFVTfV4eGDqL5AZ-9-47">
          <mxGeometry relative="1" as="geometry" />
        </mxCell>
        <UserObject label="&lt;span style=&quot;font-family: ui-sans-serif, system-ui, sans-serif, &amp;quot;Apple Color Emoji&amp;quot;, &amp;quot;Segoe UI Emoji&amp;quot;, &amp;quot;Segoe UI Symbol&amp;quot;, &amp;quot;Noto Color Emoji&amp;quot;; font-size: 14px; font-style: normal; font-variant-ligatures: normal; font-variant-caps: normal; font-weight: 400; letter-spacing: normal; orphans: 2; text-align: left; text-indent: 0px; text-transform: none; widows: 2; word-spacing: 0px; -webkit-text-stroke-width: 0px; white-space: normal; text-decoration-thickness: initial; text-decoration-style: initial; text-decoration-color: initial; float: none; display: inline !important;&quot;&gt;&lt;font style=&quot;color: light-dark(rgb(255, 255, 255), rgb(255, 255, 255));&quot;&gt;/multimedia.lv.lawrencium.v1.LawrenciumService/GetIdcIdsByMultiSidInfo&lt;/font&gt;&lt;/span&gt;" link="&lt;span style=&quot;color: rgb(96, 98, 102); font-family: ui-sans-serif, system-ui, sans-serif, &amp;quot;Apple Color Emoji&amp;quot;, &amp;quot;Segoe UI Emoji&amp;quot;, &amp;quot;Segoe UI Symbol&amp;quot;, &amp;quot;Noto Color Emoji&amp;quot;; font-size: 14px; font-style: normal; font-variant-ligatures: normal; font-variant-caps: normal; font-weight: 400; letter-spacing: normal; orphans: 2; text-align: left; text-indent: 0px; text-transform: none; widows: 2; word-spacing: 0px; -webkit-text-stroke-width: 0px; white-space: normal; background-color: rgb(240, 246, 253); text-decoration-thickness: initial; text-decoration-style: initial; text-decoration-color: initial; display: inline !important; float: none;&quot;&gt;/multimedia.lv.lawrencium.v1.LawrenciumService/GetIdcIdsByMultiSidInfo&lt;/span&gt;" id="cbWyFVTfV4eGDqL5AZ-9-51">
          <mxCell style="text;whiteSpace=wrap;html=1;" vertex="1" parent="cbWyFVTfV4eGDqL5AZ-9-12">
            <mxGeometry x="1100" y="810" width="500" height="40" as="geometry" />
          </mxCell>
        </UserObject>
        <mxCell id="cbWyFVTfV4eGDqL5AZ-9-52" value="&lt;span&gt;&lt;span&gt;&lt;span&gt;&lt;span&gt;&lt;font style=&quot;color: light-dark(rgb(255, 255, 255), rgb(255, 255, 255));&quot;&gt;&lt;span style=&quot;box-sizing: border-box; border: 0px solid; margin: 0px 0px 0px 5px; padding: 0px; font-family: ui-sans-serif, system-ui, sans-serif, &amp;quot;Apple Color Emoji&amp;quot;, &amp;quot;Segoe UI Emoji&amp;quot;, &amp;quot;Segoe UI Symbol&amp;quot;, &amp;quot;Noto Color Emoji&amp;quot;; font-size: 14px; text-align: left; text-wrap-mode: wrap;&quot; data-v-6d79ae31=&quot;&quot;&gt;/streamCenter.service.v1.StreamCenter/GetStreams&lt;/span&gt;&lt;span style=&quot;box-sizing: border-box; border: 1px solid rgb(225, 243, 216); margin: 0px 0px 0px 20px; padding: 0px 9px; align-items: center; border-radius: 4px; display: inline-flex; height: 24px; justify-content: center; vertical-align: middle; font-family: ui-sans-serif, system-ui, sans-serif, &amp;quot;Apple Color Emoji&amp;quot;, &amp;quot;Segoe UI Emoji&amp;quot;, &amp;quot;Segoe UI Symbol&amp;quot;, &amp;quot;Noto Color Emoji&amp;quot;; text-align: left; --el-tag-font-size: 12px; --el-tag-border-radius: 4px; --el-tag-border-radius-rounded: 9999px; line-height: 1; --el-icon-size: 14px; --el-tag-bg-color: rgb(239.8,248.9,235.3); --el-tag-border-color: rgb(224.6,242.8,215.6); --el-tag-hover-color: #67c23a; --el-tag-text-color: #67c23a;&quot; class=&quot;el-tag el-tag--success el-tag--light&quot; data-v-6d79ae31=&quot;&quot;&gt;&lt;/span&gt;&lt;/font&gt;&lt;/span&gt;&lt;/span&gt;&lt;/span&gt;&lt;/span&gt;&lt;div&gt;&lt;br&gt;&lt;/div&gt;" style="text;html=1;align=center;verticalAlign=middle;resizable=0;points=[];autosize=1;strokeColor=none;fillColor=none;" vertex="1" parent="cbWyFVTfV4eGDqL5AZ-9-12">
          <mxGeometry x="1570" y="820" width="400" height="50" as="geometry" />
        </mxCell>
        <UserObject label="&lt;span style=&quot;font-family: ui-sans-serif, system-ui, sans-serif, &amp;quot;Apple Color Emoji&amp;quot;, &amp;quot;Segoe UI Emoji&amp;quot;, &amp;quot;Segoe UI Symbol&amp;quot;, &amp;quot;Noto Color Emoji&amp;quot;; font-size: 14px; font-style: normal; font-variant-ligatures: normal; font-variant-caps: normal; font-weight: 400; letter-spacing: normal; orphans: 2; text-align: left; text-indent: 0px; text-transform: none; widows: 2; word-spacing: 0px; -webkit-text-stroke-width: 0px; white-space: normal; text-decoration-thickness: initial; text-decoration-style: initial; text-decoration-color: initial; float: none; display: inline !important;&quot;&gt;&lt;font style=&quot;color: light-dark(rgb(255, 255, 255), rgb(255, 255, 255));&quot;&gt;/infra.mg.playurl_v3.v1.LiveResSched/GetBatchPlayurl&lt;/font&gt;&lt;/span&gt;" link="&lt;span style=&quot;color: rgb(96, 98, 102); font-family: ui-sans-serif, system-ui, sans-serif, &amp;quot;Apple Color Emoji&amp;quot;, &amp;quot;Segoe UI Emoji&amp;quot;, &amp;quot;Segoe UI Symbol&amp;quot;, &amp;quot;Noto Color Emoji&amp;quot;; font-size: 14px; font-style: normal; font-variant-ligatures: normal; font-variant-caps: normal; font-weight: 400; letter-spacing: normal; orphans: 2; text-align: left; text-indent: 0px; text-transform: none; widows: 2; word-spacing: 0px; -webkit-text-stroke-width: 0px; white-space: normal; background-color: rgb(245, 247, 250); text-decoration-thickness: initial; text-decoration-style: initial; text-decoration-color: initial; display: inline !important; float: none;&quot;&gt;/infra.mg.playurl_v3.v1.LiveResSched/GetBatchPlayurl&lt;/span&gt;" id="cbWyFVTfV4eGDqL5AZ-9-53">
          <mxCell style="text;whiteSpace=wrap;html=1;" vertex="1" parent="cbWyFVTfV4eGDqL5AZ-9-12">
            <mxGeometry x="940" y="755" width="380" height="40" as="geometry" />
          </mxCell>
        </UserObject>
        <mxCell id="cbWyFVTfV4eGDqL5AZ-9-54" value="pu" style="text;html=1;align=center;verticalAlign=middle;resizable=0;points=[];autosize=1;strokeColor=none;fillColor=none;" vertex="1" parent="cbWyFVTfV4eGDqL5AZ-9-12">
          <mxGeometry x="580" y="698" width="40" height="30" as="geometry" />
        </mxCell>
        <mxCell id="cbWyFVTfV4eGDqL5AZ-9-55" value="CDN调度" style="text;html=1;align=center;verticalAlign=middle;resizable=0;points=[];autosize=1;strokeColor=none;fillColor=none;" vertex="1" parent="cbWyFVTfV4eGDqL5AZ-9-12">
          <mxGeometry x="1590" y="668" width="70" height="30" as="geometry" />
        </mxCell>
        <mxCell id="cbWyFVTfV4eGDqL5AZ-9-56" value="&lt;span style=&quot;font-family: ui-sans-serif, system-ui, sans-serif, &amp;quot;Apple Color Emoji&amp;quot;, &amp;quot;Segoe UI Emoji&amp;quot;, &amp;quot;Segoe UI Symbol&amp;quot;, &amp;quot;Noto Color Emoji&amp;quot;; font-size: 14px; text-align: left; text-wrap-mode: wrap;&quot;&gt;&lt;font style=&quot;color: light-dark(rgb(255, 255, 255), rgb(255, 255, 255));&quot;&gt;/live.playurl.strategy.v1.PlayUrlStrategy/BatchPlayUrlStrategy&lt;/font&gt;&lt;/span&gt;" style="text;html=1;align=center;verticalAlign=middle;resizable=0;points=[];autosize=1;strokeColor=none;fillColor=none;" vertex="1" parent="cbWyFVTfV4eGDqL5AZ-9-12">
          <mxGeometry x="515" y="160" width="410" height="30" as="geometry" />
        </mxCell>
        <mxCell id="cbWyFVTfV4eGDqL5AZ-9-57" value="&lt;span style=&quot;font-family: ui-sans-serif, system-ui, sans-serif, &amp;quot;Apple Color Emoji&amp;quot;, &amp;quot;Segoe UI Emoji&amp;quot;, &amp;quot;Segoe UI Symbol&amp;quot;, &amp;quot;Noto Color Emoji&amp;quot;; font-size: 14px; text-align: left; text-wrap-mode: wrap;&quot;&gt;&lt;font style=&quot;color: light-dark(rgb(255, 255, 255), rgb(255, 255, 255));&quot;&gt;/video.pung.playurl.v1.Playurl/BatchPlayurl&lt;/font&gt;&lt;/span&gt;" style="text;html=1;align=center;verticalAlign=middle;resizable=0;points=[];autosize=1;strokeColor=none;fillColor=none;" vertex="1" parent="cbWyFVTfV4eGDqL5AZ-9-12">
          <mxGeometry x="730" y="675" width="300" height="30" as="geometry" />
        </mxCell>
        <mxCell id="cbWyFVTfV4eGDqL5AZ-9-58" value="" style="endArrow=classic;html=1;rounded=0;entryX=0;entryY=0.5;entryDx=0;entryDy=0;" edge="1" parent="cbWyFVTfV4eGDqL5AZ-9-12" target="cbWyFVTfV4eGDqL5AZ-9-21">
          <mxGeometry width="50" height="50" relative="1" as="geometry">
            <mxPoint y="330" as="sourcePoint" />
            <mxPoint x="70" y="305" as="targetPoint" />
          </mxGeometry>
        </mxCell>
        <UserObject label="&lt;span style=&quot;font-family: ui-sans-serif, system-ui, sans-serif, &amp;quot;Apple Color Emoji&amp;quot;, &amp;quot;Segoe UI Emoji&amp;quot;, &amp;quot;Segoe UI Symbol&amp;quot;, &amp;quot;Noto Color Emoji&amp;quot;; font-size: 14px; font-style: normal; font-variant-ligatures: normal; font-variant-caps: normal; font-weight: 400; letter-spacing: normal; orphans: 2; text-align: left; text-indent: 0px; text-transform: none; widows: 2; word-spacing: 0px; -webkit-text-stroke-width: 0px; white-space: normal; text-decoration-thickness: initial; text-decoration-style: initial; text-decoration-color: initial; float: none; display: inline !important;&quot;&gt;&lt;font style=&quot;color: light-dark(rgb(255, 255, 255), rgb(255, 255, 255));&quot;&gt;/live.xroom.v1.Room/GetMultiple&lt;/font&gt;&lt;/span&gt;" link="&lt;span style=&quot;color: rgb(96, 98, 102); font-family: ui-sans-serif, system-ui, sans-serif, &amp;quot;Apple Color Emoji&amp;quot;, &amp;quot;Segoe UI Emoji&amp;quot;, &amp;quot;Segoe UI Symbol&amp;quot;, &amp;quot;Noto Color Emoji&amp;quot;; font-size: 14px; font-style: normal; font-variant-ligatures: normal; font-variant-caps: normal; font-weight: 400; letter-spacing: normal; orphans: 2; text-align: left; text-indent: 0px; text-transform: none; widows: 2; word-spacing: 0px; -webkit-text-stroke-width: 0px; white-space: normal; background-color: rgb(236, 245, 255); text-decoration-thickness: initial; text-decoration-style: initial; text-decoration-color: initial; display: inline !important; float: none;&quot;&gt;/live.xroom.v1.Room/GetMultiple&lt;/span&gt;" id="cbWyFVTfV4eGDqL5AZ-9-59">
          <mxCell style="text;whiteSpace=wrap;html=1;" vertex="1" parent="cbWyFVTfV4eGDqL5AZ-9-12">
            <mxGeometry x="15" y="290" width="230" height="40" as="geometry" />
          </mxCell>
        </UserObject>
        <mxCell id="cbWyFVTfV4eGDqL5AZ-9-60" value="全量在播房间缓存" style="shape=process;whiteSpace=wrap;html=1;backgroundOutline=1;" vertex="1" parent="cbWyFVTfV4eGDqL5AZ-9-12">
          <mxGeometry x="245" y="360" width="130" height="30" as="geometry" />
        </mxCell>
        <mxCell id="cbWyFVTfV4eGDqL5AZ-9-72" value="" style="group" vertex="1" connectable="0" parent="cbWyFVTfV4eGDqL5AZ-9-12">
          <mxGeometry x="10" y="-130" width="890" height="130" as="geometry" />
        </mxCell>
        <mxCell id="cbWyFVTfV4eGDqL5AZ-9-63" style="edgeStyle=orthogonalEdgeStyle;rounded=0;orthogonalLoop=1;jettySize=auto;html=1;entryX=0;entryY=0.5;entryDx=0;entryDy=0;" edge="1" parent="cbWyFVTfV4eGDqL5AZ-9-72" target="cbWyFVTfV4eGDqL5AZ-9-65">
          <mxGeometry relative="1" as="geometry">
            <mxPoint x="170" y="91" as="sourcePoint" />
          </mxGeometry>
        </mxCell>
        <mxCell id="cbWyFVTfV4eGDqL5AZ-9-64" style="edgeStyle=orthogonalEdgeStyle;rounded=0;orthogonalLoop=1;jettySize=auto;html=1;entryX=0;entryY=0.5;entryDx=0;entryDy=0;" edge="1" parent="cbWyFVTfV4eGDqL5AZ-9-72" source="cbWyFVTfV4eGDqL5AZ-9-65" target="cbWyFVTfV4eGDqL5AZ-9-66">
          <mxGeometry relative="1" as="geometry" />
        </mxCell>
        <mxCell id="cbWyFVTfV4eGDqL5AZ-9-65" value="&amp;nbsp;ai.web-peagsus.pc-mixer" style="rounded=1;whiteSpace=wrap;html=1;" vertex="1" parent="cbWyFVTfV4eGDqL5AZ-9-72">
          <mxGeometry x="287" y="61" width="193" height="60" as="geometry" />
        </mxCell>
        <mxCell id="cbWyFVTfV4eGDqL5AZ-9-66" value="ai.live.livestream-feed" style="rounded=1;whiteSpace=wrap;html=1;" vertex="1" parent="cbWyFVTfV4eGDqL5AZ-9-72">
          <mxGeometry x="640" y="61" width="200" height="60" as="geometry" />
        </mxCell>
        <mxCell id="cbWyFVTfV4eGDqL5AZ-9-67" value="天马web推荐链路" style="text;html=1;align=center;verticalAlign=middle;resizable=0;points=[];autosize=1;strokeColor=none;fillColor=none;" vertex="1" parent="cbWyFVTfV4eGDqL5AZ-9-72">
          <mxGeometry x="360" y="20" width="120" height="30" as="geometry" />
        </mxCell>
        <UserObject label="ai.router.router-web-pegasus" link="ai.router.router-pegasus" id="cbWyFVTfV4eGDqL5AZ-9-68">
          <mxCell style="rounded=1;whiteSpace=wrap;html=1;" vertex="1" parent="cbWyFVTfV4eGDqL5AZ-9-72">
            <mxGeometry y="60" width="170" height="60" as="geometry" />
          </mxCell>
        </UserObject>
        <mxCell id="cbWyFVTfV4eGDqL5AZ-9-70" value="/recommand" style="text;html=1;align=center;verticalAlign=middle;resizable=0;points=[];autosize=1;strokeColor=none;fillColor=none;" vertex="1" parent="1">
          <mxGeometry x="-190" y="250" width="90" height="30" as="geometry" />
        </mxCell>
      </root>
    </mxGraphModel>
  </diagram>
</mxfile>
